<svg width="22" height="22" viewBox="0 0 22 22" fill="none" xmlns="http://www.w3.org/2000/svg">
<path d="M14.8405 1.83331H7.15884C3.82217 1.83331 1.83301 3.82248 1.83301 7.15915V14.8316C1.83301 18.1775 3.82217 20.1666 7.15884 20.1666H14.8313C18.168 20.1666 20.1572 18.1775 20.1572 14.8408V7.15915C20.1663 3.82248 18.1772 1.83331 14.8405 1.83331ZM15.3813 8.89165L10.1838 14.0891C10.0555 14.2175 9.88134 14.2908 9.69801 14.2908C9.51467 14.2908 9.34051 14.2175 9.21217 14.0891L6.61801 11.495C6.35217 11.2291 6.35217 10.7891 6.61801 10.5233C6.88384 10.2575 7.32384 10.2575 7.58967 10.5233L9.69801 12.6316L14.4097 7.91998C14.6755 7.65415 15.1155 7.65415 15.3813 7.91998C15.6472 8.18581 15.6472 8.61665 15.3813 8.89165Z" fill="#007BFF"/>
</svg>
