<svg width="16" height="16" viewBox="0 0 16 16" fill="none" xmlns="http://www.w3.org/2000/svg">
<path d="M8.00033 12.3334C10.3936 12.3334 12.3337 10.3933 12.3337 8.00008C12.3337 5.60685 10.3936 3.66675 8.00033 3.66675C5.60709 3.66675 3.66699 5.60685 3.66699 8.00008C3.66699 10.3933 5.60709 12.3334 8.00033 12.3334Z" stroke="#7A7A7A" stroke-width="1.16667" stroke-linecap="round" stroke-linejoin="round"/>
<path d="M12.7597 12.7599L12.673 12.6733M12.673 3.32659L12.7597 3.23992L12.673 3.32659ZM3.23967 12.7599L3.32634 12.6733L3.23967 12.7599ZM7.99967 1.38659V1.33325V1.38659ZM7.99967 14.6666V14.6133V14.6666ZM1.38634 7.99992H1.33301H1.38634ZM14.6663 7.99992H14.613H14.6663ZM3.32634 3.32659L3.23967 3.23992L3.32634 3.32659Z" stroke="#7A7A7A" stroke-width="1.55556" stroke-linecap="round" stroke-linejoin="round"/>
</svg>
