<svg width="22" height="22" viewBox="0 0 22 22" fill="none" xmlns="http://www.w3.org/2000/svg">
<path d="M14.8405 1.83325H7.15884C3.82217 1.83325 1.83301 3.82242 1.83301 7.15909V14.8316C1.83301 18.1774 3.82217 20.1666 7.15884 20.1666H14.8313C18.168 20.1666 20.1572 18.1774 20.1572 14.8408V7.15909C20.1663 3.82242 18.1772 1.83325 14.8405 1.83325ZM15.3813 8.89159L10.1838 14.0891C10.0555 14.2174 9.88134 14.2908 9.69801 14.2908C9.51467 14.2908 9.34051 14.2174 9.21217 14.0891L6.61801 11.4949C6.35217 11.2291 6.35217 10.7891 6.61801 10.5233C6.88384 10.2574 7.32384 10.2574 7.58967 10.5233L9.69801 12.6316L14.4097 7.91992C14.6755 7.65409 15.1155 7.65409 15.3813 7.91992C15.6472 8.18575 15.6472 8.61659 15.3813 8.89159Z" fill="#007BFF"/>
</svg>
